<?xml version="1.0"?>
<svg xmlns="http://www.w3.org/2000/svg" xmlns:xlink="http://www.w3.org/1999/xlink" xmlns:svgjs="http://svgjs.com/svgjs" version="1.1" width="512" height="512" x="0" y="0" viewBox="0 0 24 24" style="enable-background:new 0 0 512 512" xml:space="preserve"><g><path xmlns="http://www.w3.org/2000/svg" d="M7,0A1,1,0,0,0,6,1V3A3,3,0,0,1,3,6H1A1,1,0,0,0,1,8H3A5.006,5.006,0,0,0,8,3V1A1,1,0,0,0,7,0Z" fill="#ffffff" data-original="#000000"/><path xmlns="http://www.w3.org/2000/svg" d="M23,16H21a5.006,5.006,0,0,0-5,5v2a1,1,0,0,0,2,0V21a3,3,0,0,1,3-3h2a1,1,0,0,0,0-2Z" fill="#ffffff" data-original="#000000"/><path xmlns="http://www.w3.org/2000/svg" d="M21,8h2a1,1,0,0,0,0-2H21a3,3,0,0,1-3-3V1a1,1,0,0,0-2,0V3A5.006,5.006,0,0,0,21,8Z" fill="#ffffff" data-original="#000000"/><path xmlns="http://www.w3.org/2000/svg" d="M3,16H1a1,1,0,0,0,0,2H3a3,3,0,0,1,3,3v2a1,1,0,0,0,2,0V21A5.006,5.006,0,0,0,3,16Z" fill="#ffffff" data-original="#000000"/></g></svg>
